HIERARCHY
ROOT Hips
{
 OFFSET 0.000000 0.000000 0.000000
 CHANNELS 6 Xposition Yposition Zposition Yrotation Xrotation Zrotation
 JOINT Chest
 {
  OFFSET 0.000000 9.585900 0.002600
  CHANNELS 3 Yrotation Xrotation Zrotation
  JOINT Chest2
  {
   OFFSET 0.000000 9.601200 -0.005300
   CHANNELS 3 Yrotation Xrotation Zrotation
   JOINT Chest3
   {
    OFFSET 0.000000 9.561800 0.000000
    CHANNELS 3 Yrotation Xrotation Zrotation
    JOINT Chest4
    {
     OFFSET 0.000000 9.552100 0.000000
     CHANNELS 3 Yrotation Xrotation Zrotation
     JOINT Neck
     {
      OFFSET 0.000000 14.453000 0.000000
      CHANNELS 3 Yrotation Xrotation Zrotation
      JOINT Head
      {
       OFFSET 0.000000 8.936500 -0.011300
       CHANNELS 3 Yrotation Xrotation Zrotation
       End Site
       {
        OFFSET 0.000000 17.073600 -0.006000
       }
      }
     }
     JOINT RightCollar
     {
      OFFSET -2.921100 9.558500 0.000000
      CHANNELS 3 Yrotation Xrotation Zrotation
      JOINT RightShoulder
      {
       OFFSET -13.519700 0.000000 0.000000
       CHANNELS 3 Yrotation Xrotation Zrotation
       JOINT RightElbow
       {
        OFFSET 0.000000 -29.696600 0.000000
        CHANNELS 3 Yrotation Xrotation Zrotation
        JOINT RightWrist
        {
         OFFSET 0.000000 -24.004700 0.000000
         CHANNELS 3 Yrotation Xrotation Zrotation
         End Site
         {
          OFFSET 0.000000 -17.728500 0.000000
         }
        }
       }
      }
     }
     JOINT LeftCollar
     {
      OFFSET 2.921100 9.558500 0.000000
      CHANNELS 3 Yrotation Xrotation Zrotation
      JOINT LeftShoulder
      {
       OFFSET 13.519700 0.000000 0.000000
       CHANNELS 3 Yrotation Xrotation Zrotation
       JOINT LeftElbow
       {
        OFFSET 0.000000 -29.696600 0.000000
        CHANNELS 3 Yrotation Xrotation Zrotation
        JOINT LeftWrist
        {
         OFFSET 0.000000 -24.004700 0.000000
         CHANNELS 3 Yrotation Xrotation Zrotation
         End Site
         {
          OFFSET 0.000000 -17.728500 0.000000
         }
        }
       }
      }
     }
    }
   }
  }
 }
 JOINT RightHip
 {
  OFFSET -7.771700 -0.012900 -0.001300
  CHANNELS 3 Yrotation Xrotation Zrotation
  JOINT RightKnee
  {
   OFFSET 0.000000 -40.869800 0.001200
   CHANNELS 3 Yrotation Xrotation Zrotation
   JOINT RightAnkle
   {
    OFFSET 0.000000 -39.717900 0.002100
    CHANNELS 3 Yrotation Xrotation Zrotation
    JOINT RightToe
    {
     OFFSET 0.000000 -4.965400 11.033500
     CHANNELS 3 Yrotation Xrotation Zrotation
     End Site
     {
      OFFSET 0.000000 -1.423100 5.872300
     }
    }
   }
  }
 }
 JOINT LeftHip
 {
  OFFSET 7.771700 -0.012900 -0.001300
  CHANNELS 3 Yrotation Xrotation Zrotation
  JOINT LeftKnee
  {
   OFFSET 0.000000 -40.869800 0.001200
   CHANNELS 3 Yrotation Xrotation Zrotation
   JOINT LeftAnkle
   {
    OFFSET 0.000000 -39.717900 0.002100
    CHANNELS 3 Yrotation Xrotation Zrotation
    JOINT LeftToe
    {
     OFFSET 0.000000 -4.965400 11.033500
     CHANNELS 3 Yrotation Xrotation Zrotation
     End Site
     {
      OFFSET 0.000000 -1.423100 5.872300
     }
    }
   }
  }
 }
}
MOTION
Frames: 8
Frame Time: 0.008333
0.000000 85.388000 0.000000 0.000000 -5.767877 0.000000 0.000000 11.653817 0.000000 0.000000 -5.885947 0.000000 0.000000 -0.000000 0.000000 0.000000 -0.000000 0.000000 0.000000 12.528835 0.000000 0.000000 0.711642 0.000000 0.000000 -0.000000 0.000000 0.000000 0.000000 -90.000000 0.000000 -2.309062 0.000000 0.000000 2.309062 0.000000 0.000000 -0.000000 0.000000 0.000000 -0.000000 90.000000 0.000000 -2.309062 0.000000 0.000000 2.309062 0.000000 0.000000 8.520406 0.000000 0.000000 1.905762 0.000000 -0.000000 -4.658285 0.000000 0.000000 -0.000000 0.000000 0.000000 8.520406 0.000000 0.000000 1.905762 0.000000 -0.000000 -4.658285 0.000000 0.000000 -0.000000 0.000000
-16.326138 58.089925 13.612109 171.593166 -49.372777 -3.426042 4.620281 21.778718 4.078106 2.389820 12.496478 2.096970 3.104912 15.637843 2.739468 2.380021 12.482081 2.094884 -0.822364 16.481965 1.421880 -1.993446 -5.116744 2.931904 2.892547 3.930263 0.748407 1.899360 -14.090030 -13.544491 -67.383364 -57.447167 120.353578 3.588671 -4.645512 -34.769789 -9.922738 2.025335 -2.020676 -1.681325 -18.569777 13.474400 50.054080 -29.094911 -115.110537 11.926654 -14.863825 -3.432056 3.661958 -22.827865 1.720806 -33.492060 72.902894 -36.907624 6.286938 -12.925342 10.962682 0.016933 -0.070152 -0.007616 -0.690772 -19.674973 11.300134 87.523322 84.052175 88.052856 -0.092972 -22.430904 -15.993825 -0.001879 0.035119 -0.000565
-16.325241 58.090422 13.611197 171.560196 -49.401821 -3.387350 4.617217 21.782305 4.058728 2.390806 12.500579 2.089835 3.065766 15.594012 2.708896 2.423446 12.533127 2.108003 -1.076951 16.563944 1.315584 -2.383902 -4.919263 2.820478 2.915703 3.907931 0.757031 1.796005 -14.118128 -13.484192 -67.147262 -57.320381 120.181323 3.501151 -4.747231 -34.699845 -9.851876 2.063459 -1.987058 -1.021541 -18.733120 12.977860 50.022882 -28.130572 -115.148580 12.669737 -15.859341 -2.847954 3.680932 -22.802921 1.708917 -33.506627 72.905319 -36.925977 6.290872 -12.927061 10.965587 0.023801 -0.066955 -0.005656 -0.669717 -19.641576 11.288848 87.481266 84.052575 88.006330 -0.101958 -22.428143 -15.993105 -0.000514 0.033547 -0.001101
-16.322821 58.088703 13.612687 171.552805 -49.414854 -3.375912 4.609864 21.782835 4.050223 2.393805 12.506158 2.087142 3.054841 15.584562 2.701893 2.402399 12.510628 2.091645 -1.305331 16.672633 1.224092 -2.763963 -4.714584 2.721083 2.952900 3.921530 0.761605 1.665351 -14.154749 -13.416935 -66.861259 -57.179065 119.986860 3.400740 -4.873635 -34.627448 -9.666529 2.127525 -1.926978 -0.432634 -18.915140 12.406430 49.942166 -27.109247 -115.099915 13.431947 -16.882549 -2.224950 3.685380 -22.791755 1.704176 -33.518177 72.905676 -36.937585 6.293543 -12.929533 10.971883 0.019171 -0.064051 -0.011225 -0.673355 -19.626330 11.284975 87.416352 84.057612 87.940223 -0.096307 -22.423342 -16.001721 0.005256 0.037079 -0.000148
-16.321280 58.087577 13.613694 171.539150 -49.434694 -3.351102 4.604165 21.791024 4.033641 2.376636 12.490122 2.078594 3.062087 15.597630 2.697917 2.343619 12.458444 2.058885 -1.488363 16.811922 1.145113 -3.129726 -4.506538 2.635907 3.029522 3.976639 0.762140 1.500181 -14.199540 -13.341158 -66.552825 -57.027915 119.788432 3.308460 -4.992476 -34.565258 -9.449257 2.224298 -1.867108 0.195456 -19.119091 11.781915 49.805265 -26.038883 -114.985500 14.190663 -17.904981 -1.583930 3.685996 -22.775674 1.690355 -33.512366 72.910972 -36.940959 6.302716 -12.929777 10.976487 0.014510 -0.064969 -0.019299 -0.669548 -19.602986 11.273537 87.365576 84.050922 87.881200 -0.100340 -22.420074 -16.003740 0.007314 0.039667 -0.000954
-16.319300 58.086478 13.615084 171.530295 -49.455087 -3.329930 4.572185 21.758203 4.003160 2.360864 12.481075 2.057814 3.072431 15.625948 2.697457 2.328698 12.441118 2.037543 -1.681053 16.933032 1.076019 -3.479435 -4.297220 2.567815 3.078033 4.024249 0.754307 1.328025 -14.247887 -13.261603 -66.267253 -56.874238 119.607643 3.208568 -5.088477 -34.520324 -9.252165 2.320512 -1.792248 0.880801 -19.356420 11.092649 49.613988 -24.958133 -114.812513 14.951223 -18.924238 -0.945913 3.678964 -22.758242 1.673952 -33.508047 72.913447 -36.942428 6.319243 -12.930079 10.970750 0.017906 -0.063835 -0.018508 -0.670355 -19.580121 11.262823 87.314534 84.044591 87.820579 -0.103549 -22.414548 -16.006147 0.007452 0.040953 -0.002047
-16.316123 58.086778 13.615915 171.521970 -49.485845 -3.312542 4.563685 21.760121 3.982171 2.355697 12.474511 2.047725 3.060146 15.624157 2.690390 2.327277 12.428751 2.019740 -1.872489 17.042200 1.017103 -3.809686 -4.089757 2.520372 3.109351 4.078167 0.744478 1.157566 -14.298217 -13.185768 -66.018849 -56.724067 119.447225 3.093092 -5.172540 -34.487915 -9.047560 2.428540 -1.694982 1.604443 -19.632256 10.336957 49.371150 -23.920111 -114.573523 15.735175 -19.943086 -0.352112 3.669902 -22.730845 1.660354 -33.502179 72.918671 -36.928150 6.324678 -12.927087 10.947750 0.017655 -0.063155 -0.013552 -0.685696 -19.543484 11.263457 87.265496 84.044004 87.747941 -0.105056 -22.407348 -16.008597 0.005651 0.041329 -0.001143
-16.312226 58.084963 13.619147 171.521479 -49.498951 -3.303813 4.558455 21.741595 3.964993 2.351349 12.466673 2.036346 3.028629 15.568719 2.643574 2.351314 12.466641 2.036348 -2.045777 17.147088 0.974723 -4.111913 -3.890036 2.496824 3.132369 4.171903 0.697670 0.977213 -14.372490 -13.068293 -65.791869 -56.580878 119.302042 2.973338 -5.244938 -34.470099 -8.824712 2.554985 -1.580825 2.343068 -19.942898 9.549050 49.084407 -22.958956 -114.270183 16.536946 -20.926277 0.162293 3.653303 -22.720282 1.657132 -33.483730 72.925516 -36.919720 6.324012 -12.931729 10.952129 0.019591 -0.058336 -0.021267 -0.686184 -19.530209 11.256673 87.217332 84.040896 87.699653 -0.102336 -22.404778 -16.013690 0.010490 0.044799 0.000713
